<svg xmlns="http://www.w3.org/2000/svg" width="15" height="20" fill="none" viewBox="0 0 15 20"><g clip-path="url(#a)"><path fill="#2A4263" d="M3.448 5.93c-.664 0-.664 1.035 0 1.035H11.4c.665 0 .665-1.034 0-1.034H3.448ZM11.4 8.374H3.448c-.664 0-.664 1.035 0 1.035H11.4c.669 0 .669-1.035 0-1.035Zm0 2.265H3.448c-.664 0-.664 1.034 0 1.034H11.4c.669 0 .669-1.034 0-1.034Zm0 2.447H3.448c-.664 0-.664 1.034 0 1.034H11.4c.669 0 .669-1.034 0-1.034Zm-.154 2.305H3.295c-.665 0-.665 1.035 0 1.035h7.956c.664 0 .664-1.035 0-1.035h-.005ZM0 .643v19.285h14.848V3.317L12.09.642H0Zm13.569 18.002H1.284V1.925h10.145V3.96h2.136v14.683h.004Z"/></g><defs><clipPath id="a"><path fill="#fff" d="M0 0h15v20H0z"/></clipPath></defs></svg>